PathFileType	4	(X/Y/Z)	/Users/itak/Documents/Research/Walk-IL/dataset/trc/00461_00167.trc
DataRate	CameraRate	NumFrames	NumMarkers	Units	OrigDataRate	OrigDataStartFrame	OrigNumFrames
100.000000	100.000000	4	53	mm	100.000000	483	553
Frame#	Time	RPSI			LPSI			L3			STRN			T10			C7			CLAV			RBAK			LBAK			LSHO			LUPA			LAEL			LAOL			LWTS			LWPS			LFRA			LIFD			LHPS			LHTS			RSHO			RUPA			RAEL			RAOL			RWTS			RWPS			RFRA			RIFD			RHTS			RHPS			RBHD			LFHD			RFHD			LBHD			LHIP			RHIP			RASI			LASI			LKNE			LTHI			LANK			LTIP			LTOE			LMT1			LMT5			LHEE			RKNE			RTHI			RANK			RTIP			RTOE			RMT1			RMT5			RHEE			
		X1	Y1	Z1	X2	Y2	Z2	X3	Y3	Z3	X4	Y4	Z4	X5	Y5	Z5	X6	Y6	Z6	X7	Y7	Z7	X8	Y8	Z8	X9	Y9	Z9	X10	Y10	Z10	X11	Y11	Z11	X12	Y12	Z12	X13	Y13	Z13	X14	Y14	Z14	X15	Y15	Z15	X16	Y16	Z16	X17	Y17	Z17	X18	Y18	Z18	X19	Y19	Z19	X20	Y20	Z20	X21	Y21	Z21	X22	Y22	Z22	X23	Y23	Z23	X24	Y24	Z24	X25	Y25	Z25	X26	Y26	Z26	X27	Y27	Z27	X28	Y28	Z28	X29	Y29	Z29	X30	Y30	Z30	X31	Y31	Z31	X32	Y32	Z32	X33	Y33	Z33	X34	Y34	Z34	X35	Y35	Z35	X36	Y36	Z36	X37	Y37	Z37	X38	Y38	Z38	X39	Y39	Z39	X40	Y40	Z40	X41	Y41	Z41	X42	Y42	Z42	X43	Y43	Z43	X44	Y44	Z44	X45	Y45	Z45	X46	Y46	Z46	X47	Y47	Z47	X48	Y48	Z48	X49	Y49	Z49	X50	Y50	Z50	X51	Y51	Z51	X52	Y52	Z52	X53	Y53	Z53	

484	4.83	237.9675445556641	961.9369506835938	-11.10489559173584	379.7733154296875	961.00146484375	3.890385866165161	295.9848937988281	1045.021728515625	7.76430082321167	300.5494689941406	1260.359497070312	262.472900390625	304.5608520507812	1168.28564453125	-18.17951583862305	299.649169921875	1442.63134765625	26.2634220123291	309.4976501464844	1370.312622070312	218.6293029785156	201.7582092285156	1320.25146484375	-27.24137115478516	396.6961364746094	1388.264770507812	-0.1223583966493607	478.5658264160156	1415.222412109375	100.6536026000977	572.363525390625	1293.321533203125	98.26297760009766	601.2142333984375	1078.13525390625	131.6047210693359	533.5552368164062	1061.298217773438	55.47669982910156	555.463134765625	880.2893676757812	221.9517974853516	610.2471923828125	862.6245727539062	174.9540405273438	609.8284301757812	991.3910522460938	157.0897216796875	555.7638549804688	710.0845947265625	228.2025756835938	610.4386596679688	784.3073120117188	186.0535888671875	566.3397827148438	793.6480102539062	242.4797210693359	136.0941925048828	1422.479614257812	95.68280029296875	58.93476486206055	1362.7490234375	78.3671875	-6.032533168792725	1078.617431640625	94.35973358154297	34.25527954101562	1058.336181640625	45.26661682128906	35.46139144897461	877.3192749023438	205.7376098632812	-23.58083343505859	861.42138671875	142.1803741455078	-17.13420486450195	1020.452331542969	101.7470397949219	27.6559886932373	721.1114501953125	212.8472442626953	22.26244163513184	780.3018188476562	224.6021118164062	-21.98202705383301	775.1411743164062	162.2353363037109	205.845947265625	1638.910888671875	160.1314544677734	401.5668029785156	1664.815185546875	221.1744689941406	281.5296020507812	1657.783325195312	273.30224609375	360.9614868164062	1652.252685546875	74.65902709960938	482.5536193847656	856.720947265625	149.2803802490234	88.77217864990234	860.0181274414062	89.89902496337891	139.1885070800781	902.1904907226562	201.9848480224609	394.46044921875	895.4117431640625	238.1935119628906	444.0174865722656	440.7817077636719	130.5638122558594	460.2401123046875	592.9354248046875	163.990478515625	437.54443359375	36.27196884155273	55.3895263671875	456.140380859375	296.9385375976562	120.7419357299805	360.3628234863281	40.11208724975586	288.7483520507812	334.9859924316406	51.54400634765625	211.2798309326172	450.176025390625	36.76351165771484	209.5085906982422	374.5599060058594	45.34165954589844	9.198777198791504	96.62318420410156	466.8052062988281	129.843994140625	68.49768829345703	728.0051879882812	134.9564666748047	76.13454437255859	36.96599960327148	107.45703125	79.140625	329.6011047363281	135.8449096679688	132.9708251953125	42.8460693359375	320.9817199707031	164.0096130371094	49.70862197875977	256.1913452148438	55.54437637329102	41.46714782714844	241.7344970703125	124.0672302246094	28.77879333496094	40.47776412963867	
485	4.84	236.6192779541016	961.96826171875	-9.216648101806641	378.4803466796875	960.8764038085938	5.329983711242676	294.621826171875	1044.774536132812	9.376047134399414	299.6408996582031	1260.284057617188	263.887451171875	303.1400756835938	1168.159301757812	-16.60657691955566	298.1259155273438	1442.376342773438	27.63509178161621	308.5005798339844	1370.175048828125	219.9187927246094	200.3152008056641	1320.073364257812	-25.75141906738281	395.1160278320312	1388.153930664062	0.9902891516685486	477.3195190429688	1414.977905273438	101.5375823974609	570.9927368164062	1292.9453125	98.44190979003906	599.3683471679688	1077.43896484375	130.6395416259766	531.71826171875	1061.402587890625	54.29369354248047	553.1239624023438	878.4070434570312	218.4430084228516	608.23486328125	861.4134521484375	171.5895690917969	607.9075927734375	990.4417114257812	155.2502288818359	552.9963989257812	708.0442504882812	222.0005340576172	608.1686401367188	782.8433227539062	181.4845886230469	563.51318359375	791.3325805664062	237.6163787841797	134.6580810546875	1422.054931640625	97.38332366943359	57.56167602539062	1362.171875	80.14803314208984	-6.829033851623535	1077.927124023438	95.79273986816406	33.40464019775391	1057.904296875	46.40680313110352	35.57768630981445	876.0230102539062	205.7630157470703	-23.99010276794434	860.4600830078125	142.6444396972656	-17.69796180725098	1019.65234375	102.8858642578125	27.95766067504883	719.814697265625	212.1091766357422	22.53916931152344	778.8896484375	224.2209014892578	-22.12758827209473	774.0361938476562	162.1050262451172	204.5178985595703	1638.71533203125	161.6005401611328	400.3390502929688	1664.888671875	222.0891876220703	280.4342651367188	1657.870727539062	274.5458374023438	359.3670349121094	1652.041015625	75.72563171386719	481.5032043457031	856.6193237304688	150.4641876220703	87.61092376708984	860.10595703125	92.01267242431641	138.1294555664062	902.1497192382812	204.0926513671875	393.5612487792969	895.2841186523438	239.8044586181641	443.3374328613281	440.7670593261719	131.1381988525391	459.5671691894531	592.7987670898438	164.7946472167969	437.4367370605469	36.41048431396484	55.37557983398438	455.6903381347656	297.0132141113281	121.0599365234375	360.3184509277344	40.04557037353516	288.8170471191406	334.9600219726562	51.51845169067383	211.3359375	450.1471557617188	36.77836990356445	209.5056610107422	374.329345703125	45.45699310302734	9.19084358215332	96.06959533691406	466.7815856933594	130.8681030273438	67.39595031738281	727.9901733398438	137.0640106201172	76.16326904296875	36.97438049316406	107.4752044677734	78.78195953369141	329.4971313476562	136.5602569580078	133.0374298095703	42.81798553466797	320.9874572753906	164.0102386474609	49.69924926757812	256.2052917480469	55.53387832641602	41.45449829101562	241.7343902587891	124.088996887207	28.81192016601562	40.49498748779297	
486	4.850000000000001	235.2971343994141	962.0855102539062	-7.366783142089844	377.1848449707031	960.793212890625	6.762463092803955	293.2868957519531	1044.57861328125	10.9439058303833	298.7559509277344	1260.213623046875	265.2593688964844	301.7373962402344	1168.026123046875	-15.09302616119385	296.5099792480469	1442.091186523438	29.11174583435059	307.5167541503906	1370.04052734375	221.1654205322266	198.9153442382812	1319.901611328125	-24.31683540344238	393.5614624023438	1388.0751953125	2.056541204452515	476.0860290527344	1414.747802734375	102.3715286254883	569.6329345703125	1292.584716796875	98.59097290039062	597.5274047851562	1076.79052734375	129.7219390869141	529.9017333984375	1061.535888671875	53.14617919921875	550.774658203125	876.6143188476562	214.9753265380859	606.2534790039062	860.3134155273438	168.3246154785156	606.003173828125	989.5648193359375	153.4729309082031	550.3655395507812	706.1453857421875	215.9201049804688	606.0006103515625	781.522705078125	177.0585632324219	560.7556762695312	789.1559448242188	232.8411407470703	133.2518005371094	1421.647583007812	99.00836944580078	56.23639297485352	1361.611206054688	81.81832885742188	-7.618106365203857	1077.252075195312	97.09817504882812	32.53751754760742	1057.4794921875	47.4656867980957	35.65771102905273	874.8123779296875	205.8465118408203	-24.40572166442871	859.5775146484375	143.1306610107422	-18.19443130493164	1018.853637695312	103.9017639160156	28.15898323059082	718.6776123046875	211.5948944091797	22.74694061279297	777.6541137695312	223.9852905273438	-22.32760429382324	773.0409545898438	162.1121520996094	203.1808013916016	1638.512939453125	163.0651092529297	399.1141662597656	1664.953735351562	223.0102844238281	279.3445434570312	1657.930908203125	275.7899475097656	357.785888671875	1651.853393554688	76.79310607910156	480.480224609375	856.54150390625	151.5794067382812	86.46579742431641	860.2283325195312	94.12865447998047	137.1360321044922	902.1295166015625	206.1650848388672	392.7107849121094	895.1697387695312	241.3525390625	442.6668701171875	440.7403259277344	131.6737365722656	458.927001953125	592.663330078125	165.5484466552734	437.33544921875	36.54806518554688	55.35676574707031	455.24658203125	297.0853881835938	121.3605499267578	360.2776184082031	39.98762893676758	288.8792114257812	334.9349365234375	51.49478149414062	211.38623046875	450.1181030273438	36.79534149169922	209.5	374.1376342773438	45.5432014465332	9.162566184997559	95.53176879882812	466.7516174316406	131.8540649414062	66.36058807373047	727.9957275390625	139.1360015869141	76.19181060791016	36.97893905639648	107.4881134033203	78.41727447509766	329.4138793945312	137.2218780517578	133.093994140625	42.79572296142578	320.984375	164.0094757080078	49.6907844543457	256.2169494628906	55.52654647827148	41.44269561767578	241.7322998046875	124.1051635742188	28.84205436706543	40.50917434692383	
487	4.86	233.984130859375	962.2649536132812	-5.560643196105957	375.8518371582031	960.743408203125	8.221961975097656	291.9713134765625	1044.430297851562	12.47589206695557	297.899658203125	1260.148803710938	266.5856018066406	300.3524780273438	1167.897583007812	-13.62269687652588	294.7819519042969	1441.78369140625	30.7027702331543	306.5479125976562	1369.914184570312	222.3739776611328	197.5493316650391	1319.742065429688	-22.92983818054199	392.0316162109375	1388.036743164062	3.080593109130859	474.8618774414062	1414.550170898438	103.1571807861328	568.2882080078125	1292.264770507812	98.71292877197266	595.6889038085938	1076.205444335938	128.8353881835938	528.0809936523438	1061.71875	52.04109573364258	548.4480590820312	874.9338989257812	211.5644836425781	604.3046264648438	859.3368530273438	165.1412048339844	604.1087646484375	988.7706909179688	151.7332000732422	547.9002075195312	704.4092407226562	209.9933624267578	603.9365844726562	780.3590698242188	172.7595367431641	558.1221313476562	787.1492919921875	228.1782531738281	131.8818664550781	1421.277709960938	100.5641860961914	54.95726013183594	1361.09619140625	83.3861083984375	-8.396537780761719	1076.611694335938	98.27436065673828	31.66274833679199	1057.087768554688	48.46448516845703	35.67121887207031	873.7138671875	205.9962921142578	-24.8114128112793	858.7857055664062	143.6091766357422	-18.62533569335938	1018.078857421875	104.7900085449219	28.26007080078125	717.700439453125	211.2715911865234	22.86553955078125	776.5968627929688	223.8841094970703	-22.56937408447266	772.1632690429688	162.2250823974609	201.8353271484375	1638.308715820312	164.5254669189453	397.8939514160156	1665.019409179688	223.9358367919922	278.2642211914062	1657.964721679688	277.0351257324219	356.2193908691406	1651.701293945312	77.85799407958984	479.4925537109375	856.5000610351562	152.6446990966797	85.31845092773438	860.363037109375	96.23304748535156	136.2059783935547	902.1201171875	208.1988067626953	391.9117736816406	895.0656127929688	242.8277435302734	442.0089111328125	440.7099304199219	132.1879272460938	458.321044921875	592.5341796875	166.2690582275391	437.2419738769531	36.67801284790039	55.33715057373047	454.8043212890625	297.1531982421875	121.6549072265625	360.2408142089844	39.93741989135742	288.9380493164062	334.9106750488281	51.4716796875	211.4338226318359	450.0900573730469	36.81470489501953	209.4939270019531	373.9840393066406	45.59867477416992	9.125548362731934	95.00331115722656	466.7144775390625	132.8191986083984	65.38867950439453	728.0120239257812	141.1692199707031	76.22335815429688	36.98143768310547	107.4980773925781	78.05673217773438	329.3421325683594	137.8415069580078	133.1429290771484	42.77719497680664	320.9773254394531	164.0085601806641	49.680908203125	256.2264099121094	55.52582168579102	41.43375396728516	241.7293395996094	124.1183319091797	28.87015724182129	40.52199554443359	
